<?xml version="1.0" encoding="UTF-8"?>
<svg id="Layer_2" data-name="Layer 2" xmlns="http://www.w3.org/2000/svg" viewBox="0 0 319.67 137.01">
  <defs>
    <style>
      .cls-1 {
        fill: #8c53a0;
      }

      .cls-2 {
        fill: #372556;
      }

      .cls-3 {
        fill: #321e52;
      }
    </style>
  </defs>
  <g id="_1:1_Varient_3" data-name="1:1 Varient 3">
    <g id="Logo">
      <path class="cls-1" d="m129.98,137c-2.4,0-4.79.01-7.19,0-2.79-.02-5.58-.03-8.37-.13-1.86-.07-3.71-.29-5.57-.43-1.29-.1-2.58-.14-3.87-.26-1.91-.18-3.83-.36-5.73-.62-2.73-.37-5.47-.77-8.19-1.25-3.08-.55-6.16-1.15-9.22-1.82-10.38-2.3-20.5-5.43-30.32-9.51-10.24-4.25-20.14-9.18-29.59-15.01-6.42-3.97-12.63-8.23-18.5-12.98-.93-.75-1.83-1.54-2.75-2.31-.72-.6-.84-1.24-.32-1.88.4-.5,1.07-.47,1.8.02,2.69,1.84,5.34,3.73,8.09,5.48,6.37,4.05,13.01,7.62,19.84,10.82,7.34,3.44,14.88,6.39,22.59,8.91,5.39,1.76,10.85,3.25,16.37,4.5,3.53.8,7.08,1.52,10.65,2.15,2.68.47,5.39.79,8.09,1.09,3.29.37,6.59.68,9.89.96,5.62.48,11.26.42,16.9.3,2.82-.06,5.65-.23,8.46-.45,2.77-.23,5.53-.58,8.3-.9,4.89-.56,9.72-1.46,14.53-2.48,7.53-1.6,14.91-3.69,22.17-6.23,7.04-2.46,13.92-5.33,20.63-8.6,2.96-1.44,5.94-2.87,8.8-4.5,6.69-3.8,13.42-7.54,19.75-11.94,3.64-2.53,7.26-5.1,10.85-7.71,2.01-1.46,4.22-2.25,6.69-2.22,5.43.08,9.78,4,10.5,8.96.68,4.73-.87,8.59-4.98,11.22-6.3,4.03-12.77,7.78-19.4,11.25-8.93,4.68-18.05,8.91-27.52,12.4-3.59,1.32-7.22,2.52-10.84,3.73-7.61,2.55-15.39,4.47-23.27,5.98-3.75.72-7.53,1.28-11.31,1.81-3.06.43-6.15.75-9.23,1.04-2.05.2-4.11.26-6.16.38-.86.05-1.72.11-2.58.16v.06Z"/>
      <g>
        <path class="cls-3" d="m27.79,81.44H0C5.78,54.3,11.55,27.19,17.33.02c.19,0,.42,0,.66,0,10.61,0,21.23-.07,31.84.03,4.71.04,9.42.36,14.05,1.37,3.06.67,5.97,1.72,8.56,3.49,3.88,2.64,6.23,6.35,7.01,10.94,1.24,7.35.51,14.51-2.67,21.31-1.94,4.14-4.74,7.65-8.55,10.23-4.03,2.73-8.45,4.68-13.23,5.68-2.67.55-5.36,1.03-8.07,1.27-2.67.24-5.38.14-8.07.17-1.49.02-2.99.03-4.48-.01-.62-.02-.89.15-1.02.79-.62,3.09-1.3,6.17-1.96,9.25-1.04,4.84-2.09,9.68-3.13,14.52-.17.78-.32,1.57-.48,2.38ZM43.41,8.83c-2.68,12.5-5.35,24.93-8.02,37.41.2.03.35.06.5.06,1.73,0,3.46-.02,5.19,0,2.51.03,4.51-1.06,6.16-2.84,1.74-1.88,3-4.08,4.07-6.37,1.55-3.32,2.51-6.84,3.07-10.45.43-2.78.73-5.59.92-8.4.16-2.26-.12-4.5-1.01-6.62-.6-1.43-1.68-2.26-3.16-2.54-.82-.16-1.67-.22-2.51-.24-1.71-.04-3.41-.01-5.2-.01Z"/>
        <path class="cls-3" d="m83.18,42.48c.5-2.32.98-4.53,1.46-6.75.3-1.4.57-2.8.9-4.19.06-.26.29-.58.53-.69,3.72-1.73,7.55-3.17,11.56-4.13,4.33-1.04,8.73-1.51,13.17-1.75,4.14-.22,8.25-.07,12.36.39,4.24.47,8.36,1.41,12.08,3.62,3.79,2.25,6.02,5.57,6.77,9.91.41,2.34.51,4.69.28,7.03-.28,2.84-.64,5.69-1.13,8.5-.57,3.2-1.32,6.36-2,9.54-.63,2.97-1.24,5.94-1.89,8.9-.63,2.85-1.29,5.69-1.95,8.62h-.55c-6.51,0-13.01,0-19.51.01-.53,0-.69-.19-.81-.66-.57-2.18-1.16-4.35-1.79-6.51-.41-1.41-.62-1.46-1.61-.42-4.69,4.89-10.49,7.53-17.14,8.42-4.48.6-8.75-.12-12.62-2.51-3.71-2.29-5.78-5.71-6.37-10.03-.41-3-.21-5.95.79-8.82,1.28-3.66,3.97-6.1,7.19-8.03,3.17-1.9,6.67-2.91,10.25-3.68,4.53-.98,9.14-1.25,13.75-1.42,3.04-.11,6.09-.17,9.13-.22.44,0,.62-.12.67-.57.27-2.14.64-4.26.85-6.4.17-1.76-.29-3.41-1.18-4.95-.58-.99-1.49-1.49-2.54-1.77-2.11-.56-4.2-.49-6.24.3-2.13.83-3.48,2.45-4.38,4.46-.47,1.05-.75,2.18-1.06,3.29-.11.41-.25.56-.7.56-5.78-.02-11.56,0-17.33,0-.29,0-.58-.02-.92-.04Zm31.92,11.21c-1.06,0-2.04-.05-3.01,0-2.46.14-4.84.5-7.11,1.64-3.73,1.88-6.14,5.9-5.8,10.09.24,2.9,2.93,5.36,5.73,5.08,3.12-.32,7.14-2.61,8.1-6.86.45-2.01.89-4.01,1.32-6.03.27-1.28.5-2.57.77-3.94Z"/>
        <path class="cls-3" d="m136.31,103.02c.19-.83.36-1.57.52-2.31.4-1.92.8-3.83,1.19-5.75.18-.87.17-.86,1.05-.88,3.1-.07,6.21-.09,9.31-.24,2.15-.11,4.23-.56,6.09-1.77,1.66-1.08,2.39-2.69,2.76-4.53.48-2.34.36-4.69.06-7.03-.67-5.27-1.43-10.52-2.15-15.78-.6-4.35-1.19-8.7-1.79-13.04-.66-4.73-1.32-9.47-1.98-14.2-.5-3.59-1.01-7.18-1.52-10.76-.05-.33.1-.43.38-.43.37,0,.75-.01,1.12-.01,8.31,0,16.63,0,24.94-.01.59,0,.72.16.77.75.24,2.91.56,5.81.85,8.72.26,2.59.51,5.19.78,7.78.34,3.3.7,6.59,1.03,9.88.34,3.34.65,6.67.97,10.01,0,.07.03.14.07.36.31-.47.56-.81.76-1.18,6.04-11.2,12.08-22.4,18.11-33.6.4-.74.73-1.52,1.14-2.26.12-.21.42-.44.65-.45,4.36-.02,8.73,0,13.09,0,.04,0,.07.02.18.06-.1.23-.17.46-.29.67-3.25,5.73-6.51,11.45-9.75,17.19-2.93,5.19-5.83,10.4-8.75,15.59-4.19,7.45-8.36,14.91-12.57,22.35-2.07,3.66-4.49,7.1-7.32,10.22-3.86,4.25-8.67,6.99-14.15,8.63-3.21.96-6.5,1.5-9.84,1.65-2.31.11-4.63.19-6.95.24-2.67.06-5.34.09-8.01.13-.19,0-.39,0-.73,0Z"/>
      </g>
      <g>
        <path class="cls-2" d="m266.02,57.9c0,.06,2.81.04,5.72-.02-1.75.02-3.65.02-5.72.02Z"/>
        <path class="cls-2" d="m266.02,57.9s.01.01.02.01h-.02Z"/>
        <path class="cls-2" d="m293.41,35.14c-.33,2.21-.66,4.41-1.01,6.62-.35,2.2-.59,4.45-1.14,6.61-.73,2.88-1.53,5.17-4.53,7.04.48-.32.94-.69,1.36-1.1.65-.63,1.21-1.37,1.66-2.16,1.33-2.31,1.82-5.01,2.17-7.62.12-.88.23-1.77.36-2.65.29-1.91.57-3.82.86-5.73.05-.34.1-.67.15-1.01h.12Z"/>
        <path class="cls-1" d="m283.83,10.09c-1.44-.01-2.79.2-4.04.6-1.72.62-3.2,1.49-4.37,2.65-.16.17-.33.34-.48.52-1.09,1.24-1.86,2.77-2.28,4.61-.72,3.22-1.05,6.52-1.58,9.79-.26,1.59-.35,3.22-1.15,4.7-.69,1.26-1.64,1.97-3.14,1.96-2.72-.01-5.45-.08-8.18-.08-1.73,0-4.24.08-5.97.06-3.1-.05-5.4,1.12-7.42,3.4-.1.11-.2.22-.3.34-.66.78-1.39.95-2.31.95-7.21-.01-14.42.01-21.63-.01-1.07-.01-1.5.41-1.88,1.28-.13.3-.19.63-.27.96-.12.51-.12.68.18.74.11.02.26.03.46.03h39.15c.28,0,.52.02.73.06.6.14.92.5,1.24,1.27.07.18.15.36.21.55.25.82.18.91-.68.92h-30.95c-.51,0-1.03.02-1.53.06-1.29.11-1.66.44-1.98,1.69-.2.79-.16.86.63.86h24.24c.61,0,1.32-.01,1.81.41.35.3,1.46,2.16.94,2.54-.15.11-.33.11-.51.11-5.48-.04-10.98-.13-16.47-.05-.37,0-.73.01-1.1.1-.57.14-1.1.49-1.25,1.09-.09.38-.1.78-.13,1.16-.05.54.16.78.74.77,1.67-.03,3.34-.01,5.01-.01.76,0,.84.08.85.85,0,.7,0,1.41,0,2.12,0,.79.82.8.82.8l24.78.02h2.89s1.19-.01,2.2-.02c.68-.01,1.27-.02,1.37-.02h.18c.54,0,1.08-.03,1.58-.04,3.44-.06,7.53-.08,10.85-1.53.05-.01.09-.04.14-.06.28-.14.57-.29.87-.46.2-.11.39-.22.57-.33.02-.02.04-.03.06-.04,3-1.87,3.8-4.16,4.53-7.04.55-2.16.79-4.41,1.14-6.61.35-2.21.68-4.41,1.01-6.62.19-1.26.37-2.52.55-3.78.9-7.12,2.12-14.19,3.21-21.27h-13.34Zm.2,7.29c0-2.13,1.72-3.85,3.85-3.85s3.86,1.72,3.86,3.85-1.73,3.86-3.86,3.86-3.85-1.73-3.85-3.86Z"/>
        <path class="cls-2" d="m319.62,35.87c-.44,3.08-.9,6.16-1.36,9.25-.2,1.34-.33,2.68-.62,4-.58,2.61-2.01,4.7-4.17,6.27-1.37,1.01-2.83,1.84-4.55,2.11-.42.07-.86.08-1.29.08h-13.09c-2.91,0-4.78,1.45-5.34,4.33-.38,2-.58,4.04-.83,6.05-.23,1.78-.33,3.57-.66,5.31-.57,3.05-2.27,5.43-4.69,7.31-1.29,1-2.69,1.77-4.34,2-.25.04-.5.07-.76.07-4.77,0-9.55.01-14.33.01-.21,0-.42-.02-.64-.03,1.3-8.08,3.25-24.09,3.07-24.72h.02c.25.04,2.55.03,5.07-.02.68-.01,1.27-.02,1.37-.02h.18c.54,0,1.08-.03,1.58-.04,3.44-.06,7.53-.08,10.85-1.53.05-.01.09-.04.14-.06.5-.23.98-.49,1.44-.79.02-.02.04-.03.06-.04,3-1.87,3.8-4.16,4.53-7.04.55-2.16.79-4.41,1.14-6.61.35-2.21.68-4.41,1.01-6.62h.06c8.27-.02,17.24-.02,25.5-.02.73,0,.76,0,.65.75Z"/>
      </g>
    </g>
  </g>
</svg>